<svg width="435" height="40" viewBox="0 0 435 40" fill="none" xmlns="http://www.w3.org/2000/svg">
<path d="M19.5066 1.55084C19.462 1.55162 19.4176 1.55621 19.3739 1.56456C9.58355 1.64261 1.64657 9.57703 1.56443 19.3664C1.54558 19.4641 1.54558 19.5645 1.56443 19.6622C1.64166 29.4533 9.57638 37.3911 19.3663 37.4732C19.464 37.4921 19.5644 37.4921 19.6621 37.4732C29.4531 37.396 37.3909 29.4613 37.4731 19.6714C37.4919 19.5737 37.4919 19.4733 37.4731 19.3755C37.3958 9.58144 29.4562 1.64182 19.6621 1.56456C19.6108 1.5548 19.5587 1.55021 19.5066 1.55084ZM18.738 3.14285V3.90378C18.7365 4.00724 18.7557 4.10996 18.7942 4.20597C18.8328 4.30197 18.8901 4.38936 18.9627 4.46304C19.0354 4.53672 19.1219 4.59522 19.2174 4.63516C19.3129 4.67509 19.4153 4.69566 19.5188 4.69566C19.6222 4.69566 19.7247 4.67509 19.8201 4.63516C19.9156 4.59522 20.0021 4.53672 20.0748 4.46304C20.1474 4.38936 20.2047 4.30197 20.2433 4.20597C20.2819 4.10996 20.301 4.00724 20.2995 3.90378V3.14285C28.7416 3.53746 35.5002 10.296 35.8948 18.7381H35.1339C35.0304 18.7367 34.9277 18.7558 34.8317 18.7944C34.7357 18.8329 34.6483 18.8902 34.5746 18.9629C34.5009 19.0355 34.4424 19.1221 34.4025 19.2175C34.3626 19.313 34.342 19.4154 34.342 19.5189C34.342 19.6224 34.3626 19.7248 34.4025 19.8203C34.4424 19.9157 34.5009 20.0023 34.5746 20.0749C34.6483 20.1476 34.7357 20.2048 34.8317 20.2434C34.9277 20.282 35.0304 20.3011 35.1339 20.2996H35.8948C35.5002 28.7418 28.7416 35.5003 20.2995 35.8949V35.134C20.3009 35.0295 20.2814 34.9259 20.242 34.8291C20.2027 34.7323 20.1443 34.6444 20.0704 34.5706C19.9964 34.4968 19.9084 34.4386 19.8116 34.3995C19.7147 34.3603 19.611 34.3409 19.5066 34.3426C19.2998 34.3458 19.1027 34.431 18.9586 34.5793C18.8145 34.7277 18.7352 34.9272 18.738 35.134V35.8949C10.2959 35.5003 3.53733 28.7418 3.14272 20.2996H3.90365C4.00711 20.3011 4.10983 20.282 4.20583 20.2434C4.30184 20.2048 4.38923 20.1476 4.4629 20.0749C4.53658 20.0023 4.59509 19.9157 4.63503 19.8203C4.67496 19.7248 4.69552 19.6224 4.69552 19.5189C4.69552 19.4154 4.67496 19.313 4.63503 19.2175C4.59509 19.1221 4.53658 19.0355 4.4629 18.9629C4.38923 18.8902 4.30184 18.8329 4.20583 18.7944C4.10983 18.7558 4.00711 18.7367 3.90365 18.7381H3.14272C3.53733 10.296 10.2959 3.53746 18.738 3.14285ZM28.8604 9.36907C28.7138 9.37437 28.5716 9.42088 28.4502 9.50326L17.268 17.0577C17.185 17.1137 17.1136 17.1851 17.0575 17.2681L9.50313 28.4503C9.40153 28.6006 9.35541 28.7815 9.3727 28.9621C9.38998 29.1426 9.46959 29.3115 9.59785 29.4398C9.7261 29.5681 9.89501 29.6477 10.0756 29.665C10.2561 29.6822 10.4371 29.6361 10.5873 29.5345L21.7711 21.9801C21.854 21.9241 21.9255 21.8527 21.9815 21.7697L29.5344 10.5875C29.6153 10.4681 29.6615 10.3287 29.668 10.1847C29.6746 10.0406 29.6411 9.89761 29.5713 9.77144C29.5015 9.64528 29.3981 9.5409 29.2726 9.46988C29.1472 9.39886 29.0045 9.36397 28.8604 9.36907ZM18.2668 18.2669L20.7707 20.7708L13.0531 25.9845L18.2668 18.2669Z" fill="#6697E6"/>
<path d="M57.3545 15.1093C56.6362 15.1093 55.9908 14.9844 55.4182 14.7345C54.8561 14.4743 54.4136 14.1203 54.0909 13.6727C53.7682 13.2147 53.6016 12.689 53.5912 12.0956H55.1059C55.1579 12.6057 55.3662 13.0377 55.7305 13.3916C56.1053 13.7352 56.6466 13.9069 57.3545 13.9069C58.0311 13.9069 58.562 13.7404 58.9472 13.4073C59.3428 13.0637 59.5406 12.6265 59.5406 12.0956C59.5406 11.6792 59.4261 11.3409 59.1971 11.0806C58.968 10.8204 58.6818 10.6226 58.3382 10.4872C57.9947 10.3519 57.5314 10.2062 56.9485 10.05C56.2302 9.86263 55.6524 9.67525 55.2152 9.48787C54.7884 9.30048 54.4188 9.009 54.1065 8.61342C53.8046 8.20743 53.6537 7.6661 53.6537 6.98945C53.6537 6.39607 53.8046 5.87036 54.1065 5.41232C54.4084 4.95428 54.83 4.60034 55.3714 4.35049C55.9231 4.10065 56.5529 3.97573 57.2608 3.97573C58.281 3.97573 59.1138 4.23078 59.7592 4.74087C60.415 5.25097 60.7846 5.92762 60.8679 6.77084H59.3064C59.2543 6.35443 59.0357 5.99008 58.6505 5.67778C58.2654 5.35507 57.7553 5.19371 57.1202 5.19371C56.5269 5.19371 56.0428 5.34986 55.668 5.66216C55.2933 5.96406 55.1059 6.39087 55.1059 6.9426C55.1059 7.33819 55.2152 7.6609 55.4338 7.91074C55.6628 8.16058 55.9387 8.35317 56.2614 8.4885C56.5945 8.61342 57.0578 8.75916 57.6512 8.92572C58.3695 9.12351 58.9472 9.3213 59.3844 9.5191C59.8217 9.70648 60.1964 10.0032 60.5087 10.4092C60.821 10.8047 60.9772 11.3461 60.9772 12.0331C60.9772 12.564 60.8366 13.0637 60.5556 13.5322C60.2745 14.0006 59.8581 14.3806 59.3064 14.6721C58.7546 14.9636 58.104 15.1093 57.3545 15.1093ZM62.5373 10.6902C62.5373 9.81578 62.7143 9.05064 63.0683 8.39481C63.4222 7.72856 63.9063 7.21326 64.5205 6.84891C65.1451 6.48456 65.8373 6.30238 66.5973 6.30238C67.3468 6.30238 67.9974 6.46374 68.5492 6.78645C69.1009 7.10916 69.5121 7.51516 69.7828 8.00443V6.44292H71.2194V15H69.7828V13.4073C69.5017 13.9069 69.0801 14.3233 68.5179 14.6565C67.9662 14.9792 67.3208 15.1405 66.5817 15.1405C65.8217 15.1405 65.1347 14.9532 64.5205 14.5784C63.9063 14.2036 63.4222 13.6779 63.0683 13.0013C62.7143 12.3246 62.5373 11.5543 62.5373 10.6902ZM69.7828 10.7058C69.7828 10.0604 69.6526 9.49828 69.3924 9.01941C69.1321 8.54055 68.7782 8.1762 68.3306 7.92635C67.8933 7.6661 67.4093 7.53598 66.8784 7.53598C66.3474 7.53598 65.8634 7.6609 65.4261 7.91074C64.9889 8.16058 64.6402 8.52493 64.3799 9.0038C64.1197 9.48266 63.9896 10.0448 63.9896 10.6902C63.9896 11.3461 64.1197 11.9186 64.3799 12.4079C64.6402 12.8868 64.9889 13.2563 65.4261 13.5166C65.8634 13.7664 66.3474 13.8913 66.8784 13.8913C67.4093 13.8913 67.8933 13.7664 68.3306 13.5166C68.7782 13.2563 69.1321 12.8868 69.3924 12.4079C69.6526 11.9186 69.7828 11.3513 69.7828 10.7058ZM77.1028 7.61405H75.3071V15H73.8861V7.61405H72.7774V6.44292H73.8861V5.83393C73.8861 4.8762 74.1308 4.17873 74.62 3.74151C75.1197 3.29387 75.9161 3.07005 77.0091 3.07005V4.2568C76.3845 4.2568 75.9421 4.38172 75.6819 4.63157C75.432 4.871 75.3071 5.27179 75.3071 5.83393V6.44292H77.1028V7.61405ZM78.2287 10.6902C78.2287 9.81578 78.4057 9.05064 78.7596 8.39481C79.1136 7.72856 79.5976 7.21326 80.2118 6.84891C80.8364 6.48456 81.5287 6.30238 82.2886 6.30238C83.0382 6.30238 83.6888 6.46374 84.2405 6.78645C84.7923 7.10916 85.2035 7.51516 85.4741 8.00443V6.44292H86.9107V15H85.4741V13.4073C85.193 13.9069 84.7714 14.3233 84.2093 14.6565C83.6576 14.9792 83.0121 15.1405 82.273 15.1405C81.5131 15.1405 80.826 14.9532 80.2118 14.5784C79.5976 14.2036 79.1136 13.6779 78.7596 13.0013C78.4057 12.3246 78.2287 11.5543 78.2287 10.6902ZM85.4741 10.7058C85.4741 10.0604 85.344 9.49828 85.0837 9.01941C84.8235 8.54055 84.4695 8.1762 84.0219 7.92635C83.5847 7.6661 83.1006 7.53598 82.5697 7.53598C82.0388 7.53598 81.5547 7.6609 81.1175 7.91074C80.6803 8.16058 80.3315 8.52493 80.0713 9.0038C79.811 9.48266 79.6809 10.0448 79.6809 10.6902C79.6809 11.3461 79.811 11.9186 80.0713 12.4079C80.3315 12.8868 80.6803 13.2563 81.1175 13.5166C81.5547 13.7664 82.0388 13.8913 82.5697 13.8913C83.1006 13.8913 83.5847 13.7664 84.0219 13.5166C84.4695 13.2563 84.8235 12.8868 85.0837 12.4079C85.344 11.9186 85.4741 11.3513 85.4741 10.7058ZM90.733 7.83266C90.9828 7.34339 91.3368 6.96342 91.7948 6.69276C92.2633 6.4221 92.8306 6.28677 93.4969 6.28677V7.75459H93.1221C91.5294 7.75459 90.733 8.61862 90.733 10.3467V15H89.312V6.44292H90.733V7.83266ZM95.8711 5.05317C95.6004 5.05317 95.3714 4.95948 95.184 4.7721C94.9966 4.58472 94.903 4.3557 94.903 4.08504C94.903 3.81438 94.9966 3.58535 95.184 3.39797C95.3714 3.21059 95.6004 3.1169 95.8711 3.1169C96.1313 3.1169 96.35 3.21059 96.5269 3.39797C96.7143 3.58535 96.808 3.81438 96.808 4.08504C96.808 4.3557 96.7143 4.58472 96.5269 4.7721C96.35 4.95948 96.1313 5.05317 95.8711 5.05317ZM96.5582 6.44292V15H95.1372V6.44292H96.5582ZM55.3245 23.1163V34H53.9035V23.1163H55.3245ZM61.4783 34.1405C60.6768 34.1405 59.948 33.9584 59.2922 33.594C58.6468 33.2297 58.1367 32.7144 57.7619 32.0481C57.3976 31.3715 57.2154 30.5907 57.2154 29.7058C57.2154 28.8314 57.4028 28.0611 57.7775 27.3948C58.1627 26.7182 58.6832 26.2029 59.3391 25.8489C59.9949 25.4846 60.7288 25.3024 61.5408 25.3024C62.3528 25.3024 63.0867 25.4846 63.7425 25.8489C64.3984 26.2029 64.9137 26.7129 65.2884 27.3792C65.6736 28.0454 65.8662 28.821 65.8662 29.7058C65.8662 30.5907 65.6684 31.3715 65.2728 32.0481C64.8876 32.7144 64.3619 33.2297 63.6957 33.594C63.0294 33.9584 62.2903 34.1405 61.4783 34.1405ZM61.4783 32.8913C61.9884 32.8913 62.4673 32.7716 62.9149 32.5322C63.3626 32.2927 63.7217 31.9336 63.9924 31.4547C64.2734 30.9759 64.414 30.3929 64.414 29.7058C64.414 29.0188 64.2786 28.4358 64.008 27.957C63.7373 27.4781 63.3834 27.1241 62.9461 26.8951C62.5089 26.6557 62.0353 26.536 61.5252 26.536C61.0047 26.536 60.5258 26.6557 60.0886 26.8951C59.6618 27.1241 59.3182 27.4781 59.058 27.957C58.7977 28.4358 58.6676 29.0188 58.6676 29.7058C58.6676 30.4033 58.7925 30.9915 59.0424 31.4704C59.3026 31.9492 59.6462 32.3084 60.073 32.5478C60.4998 32.7768 60.9682 32.8913 61.4783 32.8913ZM70.7638 34.1405C70.108 34.1405 69.5198 34.0312 68.9993 33.8126C68.4788 33.5836 68.0676 33.2713 67.7657 32.8757C67.4638 32.4697 67.2973 32.0065 67.266 31.486H68.7339C68.7755 31.9128 68.9733 32.2615 69.3272 32.5322C69.6916 32.8028 70.1652 32.9382 70.7482 32.9382C71.2895 32.9382 71.7164 32.8185 72.0287 32.579C72.341 32.3396 72.4971 32.0377 72.4971 31.6733C72.4971 31.2986 72.3305 31.0227 71.9974 30.8457C71.6643 30.6584 71.149 30.4762 70.4515 30.2992C69.8165 30.1327 69.296 29.9661 68.89 29.7995C68.4944 29.6226 68.1509 29.3675 67.8594 29.0344C67.5783 28.6909 67.4378 28.2432 67.4378 27.6915C67.4378 27.2543 67.5679 26.8535 67.8282 26.4891C68.0884 26.1248 68.458 25.8385 68.9369 25.6303C69.4157 25.4117 69.9623 25.3024 70.5764 25.3024C71.5238 25.3024 72.2889 25.5418 72.8719 26.0207C73.4548 26.4995 73.7671 27.1554 73.8088 27.9882H72.3878C72.3566 27.5405 72.1744 27.1814 71.8413 26.9107C71.5186 26.6401 71.0813 26.5047 70.5296 26.5047C70.0195 26.5047 69.6135 26.6141 69.3116 26.8327C69.0097 27.0513 68.8588 27.3376 68.8588 27.6915C68.8588 27.9726 68.9473 28.2068 69.1242 28.3942C69.3116 28.5711 69.5406 28.7169 69.8113 28.8314C70.0924 28.9355 70.4776 29.0552 70.9668 29.1905C71.581 29.3571 72.0807 29.5237 72.4659 29.6902C72.851 29.8464 73.179 30.0858 73.4496 30.4085C73.7307 30.7312 73.8764 31.1528 73.8869 31.6733C73.8869 32.1418 73.7567 32.5634 73.4965 32.9382C73.2362 33.3129 72.8667 33.6096 72.3878 33.8282C71.9193 34.0364 71.378 34.1405 70.7638 34.1405Z" fill="#5E6282"/>
<path d="M149.32 0C138.55 0 129.801 8.74895 129.801 19.5189C129.801 30.2888 138.55 39.0378 149.32 39.0378C160.09 39.0378 168.839 30.2888 168.839 19.5189C168.839 8.74895 160.09 0 149.32 0ZM149.32 1.69729C156.099 1.69729 161.986 5.46956 165 11.0324H149.32C149.288 11.0323 149.255 11.0339 149.224 11.0374C144.855 11.0868 141.267 14.457 140.873 18.7365L134.923 9.03843C138.161 4.59431 143.392 1.69729 149.32 1.69729ZM133.895 10.6097L142.086 23.9577C142.114 24.0056 142.147 24.0505 142.184 24.092C142.185 24.0931 142.185 24.0942 142.186 24.0953C143.698 26.4426 146.328 28.0054 149.32 28.0054C150.519 28.0054 151.659 27.7522 152.694 27.3009L147.046 37.1913C138.27 36.0758 131.498 28.6004 131.498 19.5189C131.498 16.2683 132.379 13.2317 133.895 10.6097ZM149.32 12.7297C153.079 12.7297 156.109 15.7593 156.109 19.5189C156.109 20.725 155.795 21.854 155.247 22.8339C155.246 22.8345 155.246 22.835 155.245 22.8356C155.235 22.8518 155.225 22.8684 155.215 22.8853C154.048 24.931 151.852 26.3081 149.32 26.3081C145.56 26.3081 142.53 23.2785 142.53 19.5189C142.53 15.7593 145.56 12.7297 149.32 12.7297ZM154.388 12.7297H165.802C166.663 14.8219 167.141 17.1136 167.141 19.5189C167.141 29.3715 159.172 37.3405 149.32 37.3405C149.186 37.3405 149.053 37.3335 148.92 37.3305L156.689 23.7273C156.708 23.6953 156.724 23.6621 156.739 23.6279C157.417 22.4091 157.806 21.0088 157.806 19.5189C157.806 16.7426 156.458 14.2793 154.388 12.7297Z" fill="#6697E6"/>
<path d="M191.949 7.27052C191.647 6.63551 191.21 6.14623 190.637 5.8027C190.065 5.44876 189.399 5.27179 188.639 5.27179C187.879 5.27179 187.192 5.44876 186.577 5.8027C185.974 6.14623 185.495 6.64592 185.141 7.30175C184.797 7.94717 184.626 8.6967 184.626 9.55033C184.626 10.404 184.797 11.1535 185.141 11.7989C185.495 12.4443 185.974 12.944 186.577 13.298C187.192 13.6415 187.879 13.8133 188.639 13.8133C189.701 13.8133 190.575 13.4957 191.262 12.8607C191.949 12.2257 192.35 11.3669 192.464 10.2842H188.123V9.12872H193.979V10.2218C193.896 11.117 193.615 11.9394 193.136 12.689C192.657 13.4281 192.027 14.0162 191.246 14.4535C190.466 14.8803 189.596 15.0937 188.639 15.0937C187.629 15.0937 186.708 14.8595 185.875 14.391C185.042 13.9121 184.381 13.2511 183.892 12.4079C183.413 11.5647 183.173 10.6122 183.173 9.55033C183.173 8.4885 183.413 7.53598 183.892 6.69276C184.381 5.83913 185.042 5.1781 185.875 4.70964C186.708 4.23078 187.629 3.99135 188.639 3.99135C189.794 3.99135 190.814 4.27762 191.699 4.85018C192.595 5.42273 193.245 6.22951 193.651 7.27052H191.949ZM199.59 15.1405C198.788 15.1405 198.06 14.9584 197.404 14.594C196.758 14.2297 196.248 13.7144 195.873 13.0481C195.509 12.3715 195.327 11.5907 195.327 10.7058C195.327 9.8314 195.514 9.06105 195.889 8.39481C196.274 7.71815 196.795 7.20285 197.451 6.84891C198.106 6.48456 198.84 6.30238 199.652 6.30238C200.464 6.30238 201.198 6.48456 201.854 6.84891C202.51 7.20285 203.025 7.71295 203.4 8.37919C203.785 9.04544 203.978 9.82099 203.978 10.7058C203.978 11.5907 203.78 12.3715 203.384 13.0481C202.999 13.7144 202.473 14.2297 201.807 14.594C201.141 14.9584 200.402 15.1405 199.59 15.1405ZM199.59 13.8913C200.1 13.8913 200.579 13.7716 201.026 13.5322C201.474 13.2927 201.833 12.9336 202.104 12.4547C202.385 11.9759 202.526 11.3929 202.526 10.7058C202.526 10.0188 202.39 9.43582 202.12 8.95695C201.849 8.47809 201.495 8.12415 201.058 7.89512C200.62 7.65569 200.147 7.53598 199.637 7.53598C199.116 7.53598 198.637 7.65569 198.2 7.89512C197.773 8.12415 197.43 8.47809 197.17 8.95695C196.909 9.43582 196.779 10.0188 196.779 10.7058C196.779 11.4033 196.904 11.9915 197.154 12.4704C197.414 12.9492 197.758 13.3084 198.185 13.5478C198.611 13.7768 199.08 13.8913 199.59 13.8913ZM209.578 15.1405C208.776 15.1405 208.048 14.9584 207.392 14.594C206.747 14.2297 206.236 13.7144 205.862 13.0481C205.497 12.3715 205.315 11.5907 205.315 10.7058C205.315 9.8314 205.503 9.06105 205.877 8.39481C206.262 7.71815 206.783 7.20285 207.439 6.84891C208.095 6.48456 208.829 6.30238 209.641 6.30238C210.453 6.30238 211.186 6.48456 211.842 6.84891C212.498 7.20285 213.013 7.71295 213.388 8.37919C213.773 9.04544 213.966 9.82099 213.966 10.7058C213.966 11.5907 213.768 12.3715 213.373 13.0481C212.987 13.7144 212.462 14.2297 211.795 14.594C211.129 14.9584 210.39 15.1405 209.578 15.1405ZM209.578 13.8913C210.088 13.8913 210.567 13.7716 211.015 13.5322C211.462 13.2927 211.821 12.9336 212.092 12.4547C212.373 11.9759 212.514 11.3929 212.514 10.7058C212.514 10.0188 212.378 9.43582 212.108 8.95695C211.837 8.47809 211.483 8.12415 211.046 7.89512C210.609 7.65569 210.135 7.53598 209.625 7.53598C209.104 7.53598 208.626 7.65569 208.188 7.89512C207.762 8.12415 207.418 8.47809 207.158 8.95695C206.897 9.43582 206.767 10.0188 206.767 10.7058C206.767 11.4033 206.892 11.9915 207.142 12.4704C207.402 12.9492 207.746 13.3084 208.173 13.5478C208.6 13.7768 209.068 13.8913 209.578 13.8913ZM219.363 6.30238C220.102 6.30238 220.748 6.46374 221.3 6.78645C221.862 7.10916 222.278 7.51516 222.549 8.00443V6.44292H223.985V15.1874C223.985 15.9681 223.819 16.6604 223.486 17.2642C223.153 17.8784 222.674 18.3572 222.049 18.7008C221.435 19.0443 220.717 19.2161 219.894 19.2161C218.77 19.2161 217.833 18.9506 217.083 18.4197C216.334 17.8888 215.891 17.1653 215.756 16.2492H217.162C217.318 16.7697 217.64 17.1861 218.13 17.4984C218.619 17.8211 219.207 17.9825 219.894 17.9825C220.675 17.9825 221.31 17.7378 221.799 17.2486C222.299 16.7593 222.549 16.0722 222.549 15.1874V13.3916C222.268 13.8913 221.851 14.3077 221.3 14.6409C220.748 14.974 220.102 15.1405 219.363 15.1405C218.603 15.1405 217.911 14.9532 217.286 14.5784C216.672 14.2036 216.188 13.6779 215.834 13.0013C215.48 12.3246 215.303 11.5543 215.303 10.6902C215.303 9.81578 215.48 9.05064 215.834 8.39481C216.188 7.72856 216.672 7.21326 217.286 6.84891C217.911 6.48456 218.603 6.30238 219.363 6.30238ZM222.549 10.7058C222.549 10.0604 222.419 9.49828 222.158 9.01941C221.898 8.54055 221.544 8.1762 221.097 7.92635C220.659 7.6661 220.175 7.53598 219.644 7.53598C219.113 7.53598 218.629 7.6609 218.192 7.91074C217.755 8.16058 217.406 8.52493 217.146 9.0038C216.886 9.48266 216.756 10.0448 216.756 10.6902C216.756 11.3461 216.886 11.9186 217.146 12.4079C217.406 12.8868 217.755 13.2563 218.192 13.5166C218.629 13.7664 219.113 13.8913 219.644 13.8913C220.175 13.8913 220.659 13.7664 221.097 13.5166C221.544 13.2563 221.898 12.8868 222.158 12.4079C222.419 11.9186 222.549 11.3513 222.549 10.7058ZM227.808 3.44482V15H226.387V3.44482H227.808ZM238.037 10.3935C238.037 10.6642 238.021 10.9505 237.99 11.2524H231.151C231.203 12.0956 231.489 12.7566 232.01 13.2355C232.54 13.7039 233.181 13.9382 233.93 13.9382C234.544 13.9382 235.054 13.7976 235.46 13.5166C235.877 13.2251 236.168 12.8399 236.335 12.361H237.865C237.636 13.1834 237.178 13.8549 236.491 14.3754C235.804 14.8855 234.95 15.1405 233.93 15.1405C233.118 15.1405 232.39 14.9584 231.744 14.594C231.109 14.2297 230.609 13.7144 230.245 13.0481C229.881 12.3715 229.699 11.5907 229.699 10.7058C229.699 9.82099 229.875 9.04544 230.229 8.37919C230.583 7.71295 231.078 7.20285 231.713 6.84891C232.358 6.48456 233.097 6.30238 233.93 6.30238C234.742 6.30238 235.46 6.47935 236.085 6.8333C236.71 7.18724 237.189 7.67651 237.522 8.30112C237.865 8.91531 238.037 9.61279 238.037 10.3935ZM236.569 10.0969C236.569 9.55553 236.449 9.09228 236.21 8.70711C235.971 8.31153 235.643 8.01484 235.226 7.81705C234.82 7.60885 234.367 7.50475 233.868 7.50475C233.149 7.50475 232.535 7.73377 232.025 8.19181C231.525 8.64985 231.239 9.28487 231.166 10.0969H236.569ZM243.545 10.7058C243.545 9.82099 243.722 9.05064 244.076 8.39481C244.43 7.72856 244.919 7.21326 245.543 6.84891C246.178 6.48456 246.902 6.30238 247.714 6.30238C248.765 6.30238 249.629 6.55743 250.306 7.06752C250.993 7.57762 251.446 8.2855 251.665 9.19118H250.134C249.989 8.67067 249.702 8.25948 249.275 7.95758C248.859 7.65569 248.339 7.50475 247.714 7.50475C246.902 7.50475 246.246 7.78582 245.746 8.34796C245.247 8.8997 244.997 9.68566 244.997 10.7058C244.997 11.7364 245.247 12.5328 245.746 13.095C246.246 13.6571 246.902 13.9382 247.714 13.9382C248.339 13.9382 248.859 13.7924 249.275 13.5009C249.692 13.2095 249.978 12.7931 250.134 12.2517H251.665C251.436 13.1262 250.978 13.8289 250.29 14.3598C249.603 14.8803 248.745 15.1405 247.714 15.1405C246.902 15.1405 246.178 14.9584 245.543 14.594C244.919 14.2297 244.43 13.7144 244.076 13.0481C243.722 12.3819 243.545 11.6011 243.545 10.7058ZM257.808 6.28677C258.453 6.28677 259.036 6.4273 259.557 6.70838C260.077 6.97904 260.483 7.39024 260.775 7.94197C261.077 8.4937 261.228 9.16515 261.228 9.95632V15H259.822V10.1593C259.822 9.30569 259.609 8.65506 259.182 8.20743C258.755 7.74938 258.172 7.52036 257.433 7.52036C256.684 7.52036 256.085 7.75459 255.637 8.22304C255.2 8.6915 254.982 9.37335 254.982 10.2686V15H253.561V3.44482H254.982V7.6609C255.263 7.22367 255.648 6.88535 256.137 6.64592C256.637 6.40648 257.194 6.28677 257.808 6.28677ZM264.97 7.83266C265.22 7.34339 265.574 6.96342 266.032 6.69276C266.5 6.4221 267.067 6.28677 267.734 6.28677V7.75459H267.359C265.766 7.75459 264.97 8.61862 264.97 10.3467V15H263.549V6.44292H264.97V7.83266ZM273.106 15.1405C272.304 15.1405 271.576 14.9584 270.92 14.594C270.274 14.2297 269.764 13.7144 269.39 13.0481C269.025 12.3715 268.843 11.5907 268.843 10.7058C268.843 9.8314 269.03 9.06105 269.405 8.39481C269.79 7.71815 270.311 7.20285 270.967 6.84891C271.623 6.48456 272.356 6.30238 273.168 6.30238C273.98 6.30238 274.714 6.48456 275.37 6.84891C276.026 7.20285 276.541 7.71295 276.916 8.37919C277.301 9.04544 277.494 9.82099 277.494 10.7058C277.494 11.5907 277.296 12.3715 276.9 13.0481C276.515 13.7144 275.99 14.2297 275.323 14.594C274.657 14.9584 273.918 15.1405 273.106 15.1405ZM273.106 13.8913C273.616 13.8913 274.095 13.7716 274.543 13.5322C274.99 13.2927 275.349 12.9336 275.62 12.4547C275.901 11.9759 276.042 11.3929 276.042 10.7058C276.042 10.0188 275.906 9.43582 275.636 8.95695C275.365 8.47809 275.011 8.12415 274.574 7.89512C274.137 7.65569 273.663 7.53598 273.153 7.53598C272.632 7.53598 272.153 7.65569 271.716 7.89512C271.289 8.12415 270.946 8.47809 270.686 8.95695C270.425 9.43582 270.295 10.0188 270.295 10.7058C270.295 11.4033 270.42 11.9915 270.67 12.4704C270.93 12.9492 271.274 13.3084 271.701 13.5478C272.127 13.7768 272.596 13.8913 273.106 13.8913ZM289.652 6.28677C290.319 6.28677 290.912 6.4273 291.433 6.70838C291.953 6.97904 292.364 7.39024 292.666 7.94197C292.968 8.4937 293.119 9.16515 293.119 9.95632V15H291.714V10.1593C291.714 9.30569 291.5 8.65506 291.073 8.20743C290.657 7.74938 290.09 7.52036 289.371 7.52036C288.632 7.52036 288.044 7.75979 287.607 8.23866C287.17 8.70711 286.951 9.38897 286.951 10.2842V15H285.546V10.1593C285.546 9.30569 285.332 8.65506 284.905 8.20743C284.489 7.74938 283.922 7.52036 283.203 7.52036C282.464 7.52036 281.876 7.75979 281.439 8.23866C281.002 8.70711 280.783 9.38897 280.783 10.2842V15H279.362V6.44292H280.783V7.67651C281.064 7.22888 281.439 6.88535 281.907 6.64592C282.386 6.40648 282.912 6.28677 283.485 6.28677C284.203 6.28677 284.838 6.44812 285.39 6.77084C285.941 7.09355 286.352 7.56721 286.623 8.19181C286.863 7.58803 287.258 7.11957 287.81 6.78645C288.362 6.45333 288.976 6.28677 289.652 6.28677ZM303.258 10.3935C303.258 10.6642 303.242 10.9505 303.211 11.2524H296.371C296.423 12.0956 296.71 12.7566 297.23 13.2355C297.761 13.7039 298.401 13.9382 299.151 13.9382C299.765 13.9382 300.275 13.7976 300.681 13.5166C301.097 13.2251 301.389 12.8399 301.555 12.361H303.086C302.857 13.1834 302.399 13.8549 301.712 14.3754C301.025 14.8855 300.171 15.1405 299.151 15.1405C298.339 15.1405 297.61 14.9584 296.965 14.594C296.33 14.2297 295.83 13.7144 295.466 13.0481C295.101 12.3715 294.919 11.5907 294.919 10.7058C294.919 9.82099 295.096 9.04544 295.45 8.37919C295.804 7.71295 296.298 7.20285 296.933 6.84891C297.579 6.48456 298.318 6.30238 299.151 6.30238C299.963 6.30238 300.681 6.47935 301.306 6.8333C301.93 7.18724 302.409 7.67651 302.742 8.30112C303.086 8.91531 303.258 9.61279 303.258 10.3935ZM301.79 10.0969C301.79 9.55553 301.67 9.09228 301.431 8.70711C301.191 8.31153 300.863 8.01484 300.447 7.81705C300.041 7.60885 299.588 7.50475 299.088 7.50475C298.37 7.50475 297.756 7.73377 297.246 8.19181C296.746 8.64985 296.46 9.28487 296.387 10.0969H301.79ZM190.138 31.5797H185.391L184.516 34H183.017L186.952 23.1787H188.592L192.511 34H191.012L190.138 31.5797ZM189.732 30.4241L187.764 24.9276L185.797 30.4241H189.732ZM198.395 25.2868C199.436 25.2868 200.28 25.6043 200.925 26.2393C201.571 26.8639 201.893 27.7696 201.893 28.9563V34H200.488V29.1593C200.488 28.3057 200.274 27.6551 199.848 27.2074C199.421 26.7494 198.838 26.5204 198.099 26.5204C197.349 26.5204 196.751 26.7546 196.303 27.223C195.866 27.6915 195.647 28.3734 195.647 29.2686V34H194.226V25.4429H195.647V26.6609C195.928 26.2237 196.308 25.8853 196.787 25.6459C197.276 25.4065 197.812 25.2868 198.395 25.2868ZM203.683 29.6902C203.683 28.8158 203.86 28.0506 204.214 27.3948C204.568 26.7286 205.052 26.2133 205.667 25.8489C206.291 25.4846 206.989 25.3024 207.759 25.3024C208.425 25.3024 209.045 25.4585 209.617 25.7708C210.19 26.0727 210.627 26.4735 210.929 26.9732V22.4448H212.365V34H210.929V32.3916C210.648 32.9017 210.231 33.3233 209.68 33.6565C209.128 33.9792 208.483 34.1405 207.743 34.1405C206.983 34.1405 206.291 33.9532 205.667 33.5784C205.052 33.2036 204.568 32.6779 204.214 32.0013C203.86 31.3246 203.683 30.5543 203.683 29.6902ZM210.929 29.7058C210.929 29.0604 210.799 28.4983 210.539 28.0194C210.278 27.5405 209.924 27.1762 209.477 26.9264C209.039 26.6661 208.555 26.536 208.024 26.536C207.494 26.536 207.01 26.6609 206.572 26.9107C206.135 27.1606 205.786 27.5249 205.526 28.0038C205.266 28.4827 205.136 29.0448 205.136 29.6902C205.136 30.3461 205.266 30.9186 205.526 31.4079C205.786 31.8868 206.135 32.2563 206.572 32.5166C207.01 32.7664 207.494 32.8913 208.024 32.8913C208.555 32.8913 209.039 32.7664 209.477 32.5166C209.924 32.2563 210.278 31.8868 210.539 31.4079C210.799 30.9186 210.929 30.3513 210.929 29.7058ZM216.188 26.8327C216.438 26.3434 216.792 25.9634 217.25 25.6928C217.718 25.4221 218.285 25.2868 218.952 25.2868V26.7546H218.577C216.984 26.7546 216.188 27.6186 216.188 29.3467V34H214.767V25.4429H216.188V26.8327ZM224.324 34.1405C223.522 34.1405 222.794 33.9584 222.138 33.594C221.492 33.2297 220.982 32.7144 220.608 32.0481C220.243 31.3715 220.061 30.5907 220.061 29.7058C220.061 28.8314 220.248 28.0611 220.623 27.3948C221.008 26.7182 221.529 26.2029 222.185 25.8489C222.841 25.4846 223.574 25.3024 224.386 25.3024C225.198 25.3024 225.932 25.4846 226.588 25.8489C227.244 26.2029 227.759 26.7129 228.134 27.3792C228.519 28.0454 228.712 28.821 228.712 29.7058C228.712 30.5907 228.514 31.3715 228.118 32.0481C227.733 32.7144 227.208 33.2297 226.541 33.594C225.875 33.9584 225.136 34.1405 224.324 34.1405ZM224.324 32.8913C224.834 32.8913 225.313 32.7716 225.761 32.5322C226.208 32.2927 226.567 31.9336 226.838 31.4547C227.119 30.9759 227.26 30.3929 227.26 29.7058C227.26 29.0188 227.124 28.4358 226.854 27.957C226.583 27.4781 226.229 27.1241 225.792 26.8951C225.355 26.6557 224.881 26.536 224.371 26.536C223.85 26.536 223.371 26.6557 222.934 26.8951C222.507 27.1241 222.164 27.4781 221.904 27.957C221.643 28.4358 221.513 29.0188 221.513 29.7058C221.513 30.4033 221.638 30.9915 221.888 31.4704C222.148 31.9492 222.492 32.3084 222.919 32.5478C223.345 32.7768 223.814 32.8913 224.324 32.8913ZM231.314 24.0532C231.043 24.0532 230.814 23.9595 230.627 23.7721C230.44 23.5847 230.346 23.3557 230.346 23.085C230.346 22.8144 230.44 22.5854 230.627 22.398C230.814 22.2106 231.043 22.1169 231.314 22.1169C231.574 22.1169 231.793 22.2106 231.97 22.398C232.157 22.5854 232.251 22.8144 232.251 23.085C232.251 23.3557 232.157 23.5847 231.97 23.7721C231.793 23.9595 231.574 24.0532 231.314 24.0532ZM232.001 25.4429V34H230.58V25.4429H232.001ZM233.892 29.6902C233.892 28.8158 234.069 28.0506 234.423 27.3948C234.777 26.7286 235.261 26.2133 235.875 25.8489C236.5 25.4846 237.197 25.3024 237.968 25.3024C238.634 25.3024 239.253 25.4585 239.826 25.7708C240.398 26.0727 240.836 26.4735 241.137 26.9732V22.4448H242.574V34H241.137V32.3916C240.856 32.9017 240.44 33.3233 239.888 33.6565C239.336 33.9792 238.691 34.1405 237.952 34.1405C237.192 34.1405 236.5 33.9532 235.875 33.5784C235.261 33.2036 234.777 32.6779 234.423 32.0013C234.069 31.3246 233.892 30.5543 233.892 29.6902ZM241.137 29.7058C241.137 29.0604 241.007 28.4983 240.747 28.0194C240.487 27.5405 240.133 27.1762 239.685 26.9264C239.248 26.6661 238.764 26.536 238.233 26.536C237.702 26.536 237.218 26.6609 236.781 26.9107C236.344 27.1606 235.995 27.5249 235.735 28.0038C235.474 28.4827 235.344 29.0448 235.344 29.6902C235.344 30.3461 235.474 30.9186 235.735 31.4079C235.995 31.8868 236.344 32.2563 236.781 32.5166C237.218 32.7664 237.702 32.8913 238.233 32.8913C238.764 32.8913 239.248 32.7664 239.685 32.5166C240.133 32.2563 240.487 31.8868 240.747 31.4079C241.007 30.9186 241.137 30.3513 241.137 29.7058Z" fill="#5E6282"/>
<path d="M355.244 0C345.921 0 338.053 6.12617 335.725 14.427H337.559C338.218 12.3021 339.286 10.3528 340.656 8.64228C342.157 9.45778 343.895 10.1407 345.818 10.6644C345.495 11.8545 345.23 13.1076 345.045 14.427H346.838C347.016 13.2601 347.26 12.1463 347.548 11.0855C349.667 11.5363 351.958 11.8048 354.365 11.8545V14.427H356.123V11.8545C358.53 11.8048 360.821 11.5396 362.94 11.0855C363.228 12.1463 363.472 13.2601 363.65 14.427H365.443C365.258 13.1076 364.993 11.8545 364.67 10.6644C366.593 10.1407 368.331 9.45778 369.832 8.64228C371.202 10.3528 372.27 12.3021 372.926 14.427H374.763C372.435 6.12617 364.567 0 355.244 0ZM354.365 1.80006V10.1572C352.129 10.1075 350.004 9.8589 348.046 9.44783C349.492 5.27421 351.783 2.35036 354.365 1.80006ZM356.123 1.80006C358.705 2.35036 360.996 5.27421 362.442 9.44783C360.484 9.8589 358.359 10.1075 356.123 10.1572V1.80006ZM350.086 2.41997C348.537 3.99792 347.243 6.27203 346.309 9.03014C344.629 8.57266 343.112 7.99253 341.814 7.31958C344.039 5.03553 346.886 3.32497 350.086 2.41997ZM360.402 2.41997C363.602 3.32497 366.449 5.03553 368.674 7.31958C367.376 7.99253 365.858 8.57266 364.179 9.03014C363.245 6.27203 361.951 3.99792 360.402 2.41997ZM335.904 16.1243L338.136 22.9135H340.182L342.044 17.8382L343.905 22.9135H345.907L348.18 16.1243H346.278L344.842 20.8681L343.201 16.1243H340.959L339.248 20.7885L337.837 16.1243H335.904ZM349.104 16.1243L351.34 22.9135H353.39L355.244 17.8382L357.109 22.9135H359.111L361.384 16.1243H359.478L358.046 20.8681L356.405 16.1243H354.159L352.449 20.7885L351.041 16.1243H349.104ZM362.263 16.1243L364.502 22.9135H366.559L368.424 17.8382L370.295 22.9135H372.304L374.584 16.1243H372.675L371.233 20.8681L369.588 16.1243H367.335L365.618 20.7885L364.2 16.1243H362.263ZM335.725 24.6108C338.053 32.9116 345.921 39.0378 355.244 39.0378C364.567 39.0378 372.435 32.9116 374.763 24.6108H372.926C372.27 26.7357 371.202 28.6849 369.832 30.3955C368.331 29.58 366.593 28.8971 364.67 28.3733C364.993 27.1832 365.258 25.9302 365.443 24.6108H363.65C363.472 25.7777 363.228 26.8915 362.94 27.9523C360.821 27.5015 358.53 27.233 356.123 27.1832V24.6108H354.365V27.1832C351.958 27.233 349.667 27.4982 347.548 27.9523C347.26 26.8915 347.016 25.7777 346.838 24.6108H345.045C345.23 25.9302 345.495 27.1832 345.818 28.3733C343.895 28.8971 342.157 29.58 340.656 30.3955C339.286 28.6849 338.218 26.7357 337.559 24.6108H335.725ZM354.365 28.8805V37.2377C351.783 36.6874 349.492 33.7636 348.046 29.5899C350.004 29.1789 352.129 28.9303 354.365 28.8805ZM356.123 28.8805C358.359 28.9303 360.484 29.1789 362.442 29.5899C360.996 33.7636 358.705 36.6874 356.123 37.2377V28.8805ZM346.312 30.0076C347.246 32.7657 348.537 35.0399 350.086 36.6145C346.886 35.7128 344.039 34.0022 341.814 31.7182C343.112 31.0419 344.629 30.4651 346.312 30.0076ZM364.179 30.0076C365.858 30.4651 367.376 31.0452 368.674 31.7182C366.449 34.0022 363.602 35.7128 360.402 36.6145C361.951 35.0399 363.245 32.7657 364.179 30.0076Z" fill="#6697E6"/>
<path d="M396.062 31.5797H391.315L390.441 34H388.942L392.877 23.1787H394.516L398.436 34H396.937L396.062 31.5797ZM395.656 30.4241L393.689 24.9276L391.721 30.4241H395.656ZM407.739 25.4429V34H406.319V32.7352C406.048 33.1724 405.668 33.5159 405.179 33.7658C404.7 34.0052 404.169 34.1249 403.586 34.1249C402.92 34.1249 402.321 33.9896 401.79 33.7189C401.259 33.4379 400.838 33.0215 400.525 32.4697C400.223 31.918 400.072 31.2465 400.072 30.4554V25.4429H401.478V30.268C401.478 31.1112 401.691 31.7618 402.118 32.2199C402.545 32.6675 403.128 32.8913 403.867 32.8913C404.627 32.8913 405.225 32.6571 405.663 32.1886C406.1 31.7202 406.319 31.0383 406.319 30.1431V25.4429H407.739ZM411.872 26.6141V31.6577C411.872 32.0741 411.96 32.3708 412.137 32.5478C412.314 32.7144 412.622 32.7976 413.059 32.7976H414.105V34H412.825C412.033 34 411.44 33.8178 411.044 33.4535C410.649 33.0891 410.451 32.4905 410.451 31.6577V26.6141H409.342V25.4429H410.451V23.288H411.872V25.4429H414.105V26.6141H411.872ZM417.248 26.8327C417.497 26.3434 417.851 25.9634 418.309 25.6928C418.778 25.4221 419.345 25.2868 420.011 25.2868V26.7546H419.637C418.044 26.7546 417.248 27.6186 417.248 29.3467V34H415.827V25.4429H417.248V26.8327ZM429.459 29.3935C429.459 29.6642 429.444 29.9505 429.413 30.2524H422.573C422.625 31.0956 422.911 31.7566 423.432 32.2355C423.963 32.7039 424.603 32.9382 425.353 32.9382C425.967 32.9382 426.477 32.7976 426.883 32.5166C427.299 32.2251 427.591 31.8399 427.757 31.361H429.288C429.059 32.1834 428.601 32.8549 427.913 33.3754C427.226 33.8855 426.373 34.1405 425.353 34.1405C424.541 34.1405 423.812 33.9584 423.166 33.594C422.531 33.2297 422.032 32.7144 421.667 32.0481C421.303 31.3715 421.121 30.5907 421.121 29.7058C421.121 28.821 421.298 28.0454 421.652 27.3792C422.006 26.7129 422.5 26.2029 423.135 25.8489C423.781 25.4846 424.52 25.3024 425.353 25.3024C426.165 25.3024 426.883 25.4794 427.507 25.8333C428.132 26.1872 428.611 26.6765 428.944 27.3011C429.288 27.9153 429.459 28.6128 429.459 29.3935ZM427.992 29.0969C427.992 28.5555 427.872 28.0923 427.632 27.7071C427.393 27.3115 427.065 27.0148 426.649 26.817C426.243 26.6088 425.79 26.5047 425.29 26.5047C424.572 26.5047 423.958 26.7338 423.448 27.1918C422.948 27.6499 422.662 28.2849 422.589 29.0969H427.992Z" fill="#5E6282"/>
</svg>
